<svg xmlns="http://www.w3.org/2000/svg" xmlns:xlink="http://www.w3.org/1999/xlink" width="330" height="83" viewBox="0 0 330 83"><defs><style>.a{fill:#ffe403;}.b{fill:#343434;font-size:20px;font-family:NotoSansCJKkr-Bold, Noto Sans CJK KR;font-weight:700;}.c{fill:#401d1d;}.d{filter:url(#c);}.e{filter:url(#a);}</style><filter id="a" x="0" y="0" width="325" height="78" filterUnits="userSpaceOnUse"><feOffset dx="-8" dy="-8" input="SourceAlpha"/><feGaussianBlur stdDeviation="5" result="b"/><feFlood flood-color="#fff"/><feComposite operator="in" in2="b"/><feComposite in="SourceGraphic"/></filter><filter id="c" x="17" y="17" width="313" height="66" filterUnits="userSpaceOnUse"><feOffset dx="3" dy="3" input="SourceAlpha"/><feGaussianBlur stdDeviation="3" result="d"/><feFlood flood-color="#dbdbdb"/><feComposite operator="in" in2="d"/><feComposite in="SourceGraphic"/></filter></defs><g transform="translate(23 23)"><g class="e" transform="matrix(1, 0, 0, 1, -23, -23)"><rect class="a" width="295" height="48" rx="24" transform="translate(23 23)"/></g><g class="d" transform="matrix(1, 0, 0, 1, -23, -23)"><rect class="a" width="295" height="48" rx="10" transform="translate(23 23)"/></g><text class="b" transform="translate(162.046 32.5)"><tspan x="-66.67" y="0">카카오톡 로그인</tspan></text><g transform="translate(65.954 16.013)"><path class="c" d="M-45.912-79.453h.988l-.5-1.169Z" transform="translate(53.031 87.773)"/><path class="c" d="M-67.108-111.5c-5.272,0-9.546,3.337-9.546,7.454,0,2.693,1.83,5.052,4.571,6.362h0l-.7,2.791a.342.342,0,0,0,.515.373l3.287-2.073.194-.117a12.226,12.226,0,0,0,1.681.117c5.272,0,9.546-3.337,9.546-7.454S-61.836-111.5-67.108-111.5Zm-4.74,9.993a.463.463,0,0,1-.463.463.463.463,0,0,1-.463-.463v-3.569h-1.052a.463.463,0,0,1-.463-.463.463.463,0,0,1,.463-.463H-70.8a.463.463,0,0,1,.463.463.463.463,0,0,1-.463.463h-1.052Zm4.595.186a.463.463,0,0,1-.607-.245l-.293-.688h-1.77l-.288.686a.464.464,0,0,1-.427.284.462.462,0,0,1-.179-.036.463.463,0,0,1-.248-.606l.407-.969v0l1.183-2.82a.463.463,0,0,1,.426-.284h0a.463.463,0,0,1,.426.282l1.2,2.822v0l.411.968A.463.463,0,0,1-67.254-101.324Zm2.892.037h-1.722a.463.463,0,0,1-.463-.463v-3.792a.463.463,0,0,1,.463-.463.463.463,0,0,1,.463.463v3.329h1.259a.463.463,0,0,1,.463.463A.463.463,0,0,1-64.362-101.287Zm4.254.139a.462.462,0,0,1-.287.1.463.463,0,0,1-.363-.176l-1.6-2.012-.325.325v1.16a.463.463,0,0,1-.463.463.463.463,0,0,1-.463-.463V-103.1h0v-2.441a.463.463,0,0,1,.463-.463.463.463,0,0,1,.463.463v1.323l1.651-1.65a.463.463,0,0,1,.655,0,.463.463,0,0,1,0,.655l-1.321,1.321,1.662,2.1A.463.463,0,0,1-60.107-101.147Z" transform="translate(76.654 111.503)"/></g></g></svg>