<svg xmlns="http://www.w3.org/2000/svg" width="149.986" height="31.262" viewBox="0 0 149.986 31.262"><defs><style>.a{fill:#161615;}.b{fill:#4f1619;}</style></defs><g transform="translate(80.509)"><path class="a" d="M439.065,292.9h-.032a2.26,2.26,0,0,1-2.191-1.684l-4.22-15.106a.423.423,0,1,1,.815-.227l4.22,15.105a1.458,1.458,0,0,0,2.8.035l4.346-14.16a.423.423,0,0,1,.81.249l-4.346,14.16A2.259,2.259,0,0,1,439.065,292.9Z" transform="translate(-432.606 -269.333)"/><path class="a" d="M467.546,294.284h-.032a2.261,2.261,0,0,1-2.19-1.684.423.423,0,1,1,.816-.228,1.458,1.458,0,0,0,2.8.035l4.346-14.16a.423.423,0,0,1,.81.249l-4.346,14.16A2.259,2.259,0,0,1,467.546,294.284Z" transform="translate(-451.684 -270.721)"/><path class="a" d="M504.65,285.246a3.192,3.192,0,0,1-3.188-3.188V267.173a.423.423,0,1,1,.847,0v14.885a2.344,2.344,0,0,0,2.341,2.341.423.423,0,0,1,0,.847Zm-2.765-21.79a1.448,1.448,0,0,1-1.446-1.446,1.4,1.4,0,0,1,.46-1.026,1.471,1.471,0,0,1,1.121-.376,1.416,1.416,0,0,1,1.267,1.265h0a1.467,1.467,0,0,1-.375,1.122A1.4,1.4,0,0,1,501.885,263.455Zm0-2.008a.609.609,0,0,0-.415.16.551.551,0,0,0-.185.4.593.593,0,0,0,.6.6.549.549,0,0,0,.4-.185.611.611,0,0,0,.157-.474h0a.574.574,0,0,0-.5-.5Z" transform="translate(-472.179 -260.601)"/><path class="a" d="M529.835,294.046l-.213,0a10.25,10.25,0,0,1-5.324-1.5.423.423,0,1,1,.44-.723,9.319,9.319,0,0,0,4.9,1.377,5.4,5.4,0,0,0,4.057-1.334,3.733,3.733,0,0,0,1.044-2.814.423.423,0,1,1,.846-.023,4.559,4.559,0,0,1-1.289,3.434A6.108,6.108,0,0,1,529.835,294.046Zm.289-9.774a.418.418,0,0,1-.141-.025c-2.2-.778-5.223-1.843-5.357-4.7a3.549,3.549,0,0,1,1.035-2.639,5.709,5.709,0,0,1,4.122-1.554,7.976,7.976,0,0,1,4.534,1.259.423.423,0,1,1-.508.677,7.169,7.169,0,0,0-4.026-1.089,4.866,4.866,0,0,0-3.513,1.3,2.717,2.717,0,0,0-.8,2.016c.1,2.108,2.229,3.028,4.793,3.933a.424.424,0,0,1-.141.823Z" transform="translate(-485.98 -269.21)"/><path class="a" d="M580.474,286.651a.423.423,0,0,1-.423-.423V277.08c0-4.941-2.55-5.978-4.69-5.978a5.808,5.808,0,0,0-3.014.929,8.141,8.141,0,0,0-3.8,6.967v7.23a.423.423,0,1,1-.847,0V279a8.991,8.991,0,0,1,4.2-7.691,6.639,6.639,0,0,1,3.453-1.051c3.519,0,5.537,2.487,5.537,6.824v9.148A.423.423,0,0,1,580.474,286.651ZM568.127,272.89a.423.423,0,0,1-.423-.423v-9.033a.423.423,0,0,1,.847,0v9.033A.423.423,0,0,1,568.127,272.89Z" transform="translate(-511.421 -262.006)"/></g><g transform="translate(0 5.369)"><path class="b" d="M243.421,300.07a2.729,2.729,0,0,1-.779-.114.423.423,0,1,1,.239-.812c2.019.595,4.476-2.212,8.216-9.387.536-1.029,1.51-3.176,2.542-5.448a96.208,96.208,0,0,1,4.616-9.465.423.423,0,1,1,.687.495,100.058,100.058,0,0,0-4.533,9.32c-1.081,2.383-2.015,4.44-2.562,5.49C248.753,296.086,246.1,300.07,243.421,300.07Z" transform="translate(-242.339 -274.177)"/><path class="a" d="M296.478,292.956c-5.144,0-8.736-3.987-8.736-9.7,0-5.661,3.674-9.77,8.736-9.77s8.735,4.109,8.735,9.77C305.214,288.969,301.622,292.956,296.478,292.956Zm0-18.62c-4.645,0-7.889,3.669-7.889,8.924,0,5.211,3.244,8.85,7.889,8.85s7.889-3.639,7.889-8.85C304.367,278.005,301.123,274.336,296.478,274.336Z" transform="translate(-268.827 -273.489)"/><path class="a" d="M397.239,292.1a.423.423,0,0,1-.423-.423v-8.474a8.944,8.944,0,0,1,.445-2.787,8.671,8.671,0,0,1,.877-1.9c2.034-3.252,4.152-4.833,6.475-4.833a5.1,5.1,0,0,1,2.3.523.423.423,0,1,1-.379.757,4.255,4.255,0,0,0-1.923-.434c-1.98,0-3.917,1.492-5.758,4.435a7.808,7.808,0,0,0-.789,1.71,8.1,8.1,0,0,0-.4,2.523v8.474A.423.423,0,0,1,397.239,292.1Z" transform="translate(-332.46 -273.607)"/><path class="a" d="M247.089,286.272a.423.423,0,0,1-.389-.255l-4.327-9.986a.423.423,0,1,1,.777-.337l4.327,9.986a.423.423,0,0,1-.388.592Z" transform="translate(-242.339 -274.627)"/><path class="a" d="M350.211,292.623c-3.462,0-5.448-2.43-5.448-6.667v-11.6a.423.423,0,1,1,.847,0v11.6c0,3.754,1.634,5.82,4.6,5.82a5.4,5.4,0,0,0,4.257-2.072l.055-.055a.423.423,0,1,1,.6.6l-.055.055A6.237,6.237,0,0,1,350.211,292.623Z" transform="translate(-302.092 -273.747)"/><path class="a" d="M375.071,291.806a.423.423,0,0,1-.423-.423V274.356a.423.423,0,1,1,.847,0v17.027A.423.423,0,0,1,375.071,291.806Z" transform="translate(-319.527 -273.747)"/><path class="a" d="M397.239,285.045a.423.423,0,0,1-.423-.424v-6.484a.423.423,0,1,1,.847,0v6.484A.423.423,0,0,1,397.239,285.045Z" transform="translate(-332.46 -275.954)"/></g></svg>