<svg xmlns="http://www.w3.org/2000/svg" xmlns:xlink="http://www.w3.org/1999/xlink" width="313" height="66" viewBox="0 0 313 66"><defs><style>.a{fill:#34c800;}.b,.c{fill:#fff;}.b{font-size:20px;font-family:NotoSansCJKkr-Bold, Noto Sans CJK KR;font-weight:700;}.d{filter:url(#a);}</style><filter id="a" x="0" y="0" width="313" height="66" filterUnits="userSpaceOnUse"><feOffset dx="3" dy="3" input="SourceAlpha"/><feGaussianBlur stdDeviation="3" result="b"/><feFlood flood-color="#dbdbdb"/><feComposite operator="in" in2="b"/><feComposite in="SourceGraphic"/></filter></defs><g transform="translate(6 6)"><g class="d" transform="matrix(1, 0, 0, 1, -6, -6)"><path class="a" d="M38,0H285a10,10,0,0,1,10,10V38a10,10,0,0,1-10,10H10A10,10,0,0,1,0,38v0A38,38,0,0,1,38,0Z" transform="translate(6 6)"/></g><text class="b" transform="translate(105 33)"><tspan x="0" y="0">네이버 로그인</tspan></text><path class="c" d="M4391.361,687.5v7.389l-5.277-7.389h-6.861v16.889h6.861v-7.508l5.277,7.508h6.861V687.5Z" transform="translate(-4303.223 -670.389)"/></g></svg>